<svg id="Laag_1" data-name="Laag 1" xmlns="http://www.w3.org/2000/svg" viewBox="0 0 401.8 41.58">
  <defs>
    <style>
      .cls-1 {
        fill: #fff;
      }

      .cls-2 {
        fill: #e8565f;
      }
    </style>
  </defs>
  <title>LOGOwijzer</title>
  <path class="cls-1" d="M154.46,47.18h-2.05a.7.7,0,0,1-.71-.7,1.32,1.32,0,0,0-.7-1.18l-.28-.15a1.5,1.5,0,0,0-1.48,0,.72.72,0,0,1-1-.25l-1-1.7a.71.71,0,0,1-.08-.55.7.7,0,0,1,.34-.43,1.58,1.58,0,0,0,0-2.65.7.7,0,0,1-.28-.94l.91-1.76a.73.73,0,0,1,.42-.35.75.75,0,0,1,.55.06,1.81,1.81,0,0,0,1.76,0,1.55,1.55,0,0,0,.82-1.35.71.71,0,0,1,.71-.71h2.05a.7.7,0,0,1,.5.2.75.75,0,0,1,.21.5,1.56,1.56,0,0,0,.85,1.37,1.82,1.82,0,0,0,1.74,0,.71.71,0,0,1,.94.25l1,1.7a.7.7,0,0,1-.26,1,1.62,1.62,0,0,0-.84,1.4h0a1.46,1.46,0,0,0,.73,1.32.72.72,0,0,1,.34.44.68.68,0,0,1-.08.54l-1,1.7a.7.7,0,0,1-.94.25,1.52,1.52,0,0,0-1.49,0l-.28.15a1.32,1.32,0,0,0-.7,1.18A.7.7,0,0,1,154.46,47.18Z" transform="translate(-13.07 -10.28)"/>
  <path class="cls-2" d="M153.49,43.43a2.59,2.59,0,1,1,2.59-2.58A2.59,2.59,0,0,1,153.49,43.43Z" transform="translate(-13.07 -10.28)"/>
  <g>
    <path class="cls-1" d="M13.07,20.58H19.5l4.41,14.49L28.5,20.58H34l4.59,14.49L43,20.58h6.43L41.46,43.85H35.57L31.25,29.22,26.88,43.85H21Z" transform="translate(-13.07 -10.28)"/>
    <path class="cls-1" d="M52.67,13.79a3.56,3.56,0,1,1,3.6,3.6A3.59,3.59,0,0,1,52.67,13.79Zm.27,6.79h6.57V43.85H52.94Z" transform="translate(-13.07 -10.28)"/>
    <path class="cls-1" d="M59.87,50.91l.67-4.86a8.24,8.24,0,0,0,2.43.4,2.32,2.32,0,0,0,2.21-2.6V20.58h6.57V44.52a7,7,0,0,1-7.25,7.33A11.91,11.91,0,0,1,59.87,50.91Zm5-37.12a3.56,3.56,0,1,1,3.6,3.6A3.59,3.59,0,0,1,64.91,13.79Z" transform="translate(-13.07 -10.28)"/>
    <path class="cls-1" d="M76.43,39.21l11.7-13H76.74V20.58H96.68v4.64L85,38.27H96.77v5.58H76.43Z" transform="translate(-13.07 -10.28)"/>
    <path class="cls-1" d="M117.74,36.51l4.18,4.27c-2.07,2.16-6.07,3.61-9.49,3.61A12,12,0,0,1,100.1,32.14a11.72,11.72,0,0,1,12-12.1c7.29,0,11.56,5.54,11.56,14.31H106.85a5.64,5.64,0,0,0,5.53,4.23A8.4,8.4,0,0,0,117.74,36.51Zm-10.8-6.88h10.39a4.85,4.85,0,0,0-5-3.78A5.61,5.61,0,0,0,106.94,29.63Z" transform="translate(-13.07 -10.28)"/>
    <path class="cls-1" d="M142.62,20v5.54c-4.86,0-8,2.79-8,7.15V43.85h-6.57V20.58h6.57V24.9A8.68,8.68,0,0,1,142.62,20Z" transform="translate(-13.07 -10.28)"/>
  </g>
  <g>
    <path class="cls-1" d="M189.92,29.94v13.9h-6.34V41.5a9.25,9.25,0,0,1-6.84,2.88c-5,0-8.78-3-8.78-7.42s4.28-7.74,9.68-7.74a16.9,16.9,0,0,1,5.94,1.17v-.45c0-2.47-1.53-4.63-5.36-4.63a13.37,13.37,0,0,0-6,1.66L170,22.61A21.28,21.28,0,0,1,179.71,20C185.78,20,189.92,23.87,189.92,29.94Zm-6.34,6.57V34.35a14.77,14.77,0,0,0-5-.85c-2.38,0-4.27,1.39-4.27,3.28s1.66,3.06,3.91,3.06C180.74,39.84,183.13,38.67,183.58,36.51Z" transform="translate(-13.07 -10.28)"/>
    <path class="cls-1" d="M231.72,29V43.89h-6.3V30.17c0-2.7-1.7-4.59-4.14-4.59a4.21,4.21,0,0,0-4.5,4.23V43.89h-6.29V30.17c0-2.7-1.71-4.59-4.1-4.59a4.19,4.19,0,0,0-4.5,4.23v14h-6.57V20.58h6.57v3.06a6.83,6.83,0,0,1,6.3-3.6,8.27,8.27,0,0,1,7.38,4.23c1.21-2.56,4.09-4.23,7.56-4.23C228,20,231.72,23.78,231.72,29Z" transform="translate(-13.07 -10.28)"/>
    <path class="cls-1" d="M235.51,40.87l2.83-4.54a13.27,13.27,0,0,0,7.79,2.61c1.75,0,3-.72,3-1.76,0-1.43-1.71-1.89-4.09-2.52-4.77-1.16-8.46-2.47-8.51-7.06,0-4.41,3.6-7.56,9.09-7.56a16.91,16.91,0,0,1,9.18,2.88l-2.65,4.68a13.25,13.25,0,0,0-6.53-2.07c-1.62,0-2.74.59-2.74,1.4,0,1.26.94,1.62,4.09,2.47,4,1,8.46,2.39,8.46,7.47,0,4.59-3.73,7.51-9.45,7.51A17.2,17.2,0,0,1,235.51,40.87Z" transform="translate(-13.07 -10.28)"/>
    <path class="cls-1" d="M273.67,42.36a8.52,8.52,0,0,1-5.36,2,6.74,6.74,0,0,1-7-7.11V25.89h-3.2V20.58h3.2V14.19h6.3v6.39h5v5.31h-5V36.24a2.38,2.38,0,0,0,2.2,2.61,3.38,3.38,0,0,0,2.25-.77Z" transform="translate(-13.07 -10.28)"/>
    <path class="cls-1" d="M294.09,36.51l4.19,4.27c-2.07,2.16-6.07,3.6-9.49,3.6a12,12,0,0,1-12.33-12.24,11.72,11.72,0,0,1,12-12.1C295.72,20,300,25.58,300,34.35H283.21a5.64,5.64,0,0,0,5.53,4.23A8.35,8.35,0,0,0,294.09,36.51ZM283.3,29.63h10.39a4.85,4.85,0,0,0-5-3.78A5.61,5.61,0,0,0,283.3,29.63Z" transform="translate(-13.07 -10.28)"/>
    <path class="cls-1" d="M319,20v5.54c-4.86,0-8,2.79-8,7.15V43.84h-6.57V20.58H311V24.9A8.69,8.69,0,0,1,319,20Z" transform="translate(-13.07 -10.28)"/>
    <path class="cls-1" d="M346.7,12.39V43.84h-6.57V40.51a9.57,9.57,0,0,1-7.83,3.87c-6.21,0-10.71-5-10.71-12.19S326.09,20,332.3,20a9.57,9.57,0,0,1,7.83,3.87V12.39Zm-6.57,19.8c0-3.87-2.48-6.61-5.94-6.61-3.64,0-6.21,2.74-6.21,6.61s2.57,6.66,6.21,6.66C337.65,38.85,340.13,36.1,340.13,32.19Z" transform="translate(-13.07 -10.28)"/>
    <path class="cls-1" d="M373.07,29.94v13.9h-6.35V41.5a9.23,9.23,0,0,1-6.84,2.88c-4.95,0-8.77-3-8.77-7.42s4.27-7.74,9.67-7.74a16.9,16.9,0,0,1,5.94,1.17v-.45c0-2.47-1.53-4.63-5.35-4.63a13.34,13.34,0,0,0-6,1.66l-2.21-4.36A21.31,21.31,0,0,1,362.85,20C368.93,20,373.07,23.87,373.07,29.94Zm-6.35,6.57V34.35a14.67,14.67,0,0,0-5-.85c-2.39,0-4.28,1.39-4.28,3.28s1.67,3.06,3.92,3.06C363.89,39.84,366.27,38.67,366.72,36.51Z" transform="translate(-13.07 -10.28)"/>
    <path class="cls-1" d="M414.87,29V43.89h-6.3V30.17c0-2.7-1.71-4.59-4.14-4.59a4.21,4.21,0,0,0-4.5,4.23V43.89h-6.3V30.17c0-2.7-1.71-4.59-4.09-4.59a4.18,4.18,0,0,0-4.5,4.23v14h-6.57V20.58H385v3.06a6.82,6.82,0,0,1,6.3-3.6,8.28,8.28,0,0,1,7.38,4.23c1.21-2.56,4.09-4.23,7.56-4.23C411.14,20,414.87,23.78,414.87,29Z" transform="translate(-13.07 -10.28)"/>
  </g>
</svg>
